<svg width="32" height="42" viewBox="0 0 32 42" fill="none" xmlns="http://www.w3.org/2000/svg">
<path d="M5.36802 34.1314C5.36802 34.1314 7.21982 34.8924 10.5025 34.6387C13.7851 34.3851 15.8052 33.6241 15.8052 33.6241L3.93712 19.1663C3.93712 19.1663 -0.18718 13.8398 0.14942 9.27417C0.48612 4.70856 2.84292 2.6794 2.84292 2.6794C2.84292 2.6794 4.35802 0.734782 7.80902 0.142943C11.26 -0.448896 13.701 0.988427 13.701 0.988427C13.701 0.988427 16.3944 1.91846 17.9095 5.04675C19.4246 8.17505 18.6671 11.3879 18.4145 12.6561C18.162 13.9243 16.647 16.799 16.647 16.799L13.9611 20.7728L9.49242 15.3617C9.49242 15.3617 11.765 12.1488 12.0175 10.2888C12.2701 8.42869 11.6809 7.27442 9.99742 6.90682C8.31402 6.53921 7.30402 7.58321 6.96732 8.76688C6.63062 9.95056 7.13562 11.8106 7.80902 12.8252C8.48242 13.8398 9.49242 15.3617 9.49242 15.3617L21.7814 30.2422L25.9899 25.1693C25.9899 25.1693 28.0942 22.971 30.5352 24.4929C32.9761 26.0148 31.6294 29.0585 31.6294 29.0585C31.6294 29.0585 28.5992 33.2859 25.7374 35.6533C22.8756 38.0206 19.5929 39.458 19.5929 39.458C19.5929 39.458 16.8153 41.2335 10.5025 41.5717C4.18962 41.9099 0.57032 39.9653 0.57032 39.9653L5.36802 34.1314Z" fill="black"/>
</svg>
